<svg width="18" height="18" viewBox="0 0 18 18" fill="none" xmlns="http://www.w3.org/2000/svg">
<path d="M11.6667 1.00001H17V6.33334M17 1.00001L9 9M7.22222 1H5.26667C3.77319 1 3.02645 1 2.45603 1.29065C1.95426 1.54631 1.54631 1.95426 1.29065 2.45603C1 3.02645 1 3.77319 1 5.26667V12.7333C1 14.2268 1 14.9735 1.29065 15.544C1.54631 16.0458 1.95426 16.4537 2.45603 16.7093C3.02645 17 3.77319 17 5.26667 17H12.7333C14.2268 17 14.9735 17 15.544 16.7093C16.0458 16.4537 16.4537 16.0458 16.7093 15.544C17 14.9735 17 14.2268 17 12.7333V10.7778" stroke="white" stroke-width="2" stroke-linecap="round" stroke-linejoin="round"/>
</svg>
