<svg width="16" height="13" viewBox="0 0 16 13" fill="none" xmlns="http://www.w3.org/2000/svg">
<path d="M1.00009 3L6.44335 6.81027C6.88415 7.11887 7.10455 7.27313 7.34429 7.33287C7.55602 7.38567 7.77749 7.38567 7.98922 7.33287C8.22895 7.27313 8.44935 7.11887 8.89015 6.81027L14.3334 3M4.20009 11.6667H11.1334C12.2536 11.6667 12.8136 11.6667 13.2414 11.4487C13.6178 11.2569 13.9237 10.951 14.1154 10.5747C14.3334 10.1468 14.3334 9.5868 14.3334 8.46667V4.2C14.3334 3.07989 14.3334 2.51984 14.1154 2.09202C13.9237 1.71569 13.6178 1.40973 13.2414 1.21799C12.8136 1 12.2536 1 11.1334 1H4.20009C3.07998 1 2.51993 1 2.09211 1.21799C1.71578 1.40973 1.40982 1.71569 1.21807 2.09202C1.00009 2.51984 1.00009 3.07989 1.00009 4.2V8.46667C1.00009 9.5868 1.00009 10.1468 1.21807 10.5747C1.40982 10.951 1.71578 11.2569 2.09211 11.4487C2.51993 11.6667 3.07998 11.6667 4.20009 11.6667Z" stroke="white" stroke-width="2" stroke-linecap="round" stroke-linejoin="round"/>
</svg>
